STARTFONT 2.1
FONT -FontForge-Subway Ticker-Book-R-Normal--8-80-75-75-P-29-ISO10646-1
SIZE 8 75 75
FONTBOUNDINGBOX 7 7 0 0
COMMENT "Generated by fontforge, http://fontforge.sourceforge.net"
COMMENT "Subway Ticker by Keith Bates is based on an electronic display seen on a New York subway train in February 2005.                                     K-Type Freebie (c) 2005."
STARTPROPERTIES 40
FOUNDRY "FontForge"
FAMILY_NAME "Subway Ticker"
WEIGHT_NAME "Book"
SLANT "R"
SETWIDTH_NAME "Normal"
ADD_STYLE_NAME ""
PIXEL_SIZE 8
POINT_SIZE 80
RESOLUTION_X 75
RESOLUTION_Y 75
SPACING "P"
AVERAGE_WIDTH 29
CHARSET_REGISTRY "ISO10646"
CHARSET_ENCODING "1"
FONTNAME_REGISTRY ""
CHARSET_COLLECTIONS "Symbol ISO10646-1"
FONT_NAME "SubwayTicker"
FACE_NAME "Subway Ticker"
COPYRIGHT "Subway Ticker by Keith Bates is based on an electronic display seen on a New York subway train in February 2005.                                     K-Type Freebie (c) 2005."
FONT_VERSION "Macromedia Fontographer 4.1.5 16/3/05"
FONT_ASCENT 6
FONT_DESCENT 2
UNDERLINE_POSITION -1
UNDERLINE_THICKNESS 1
X_HEIGHT 5
CAP_HEIGHT 6
RAW_ASCENT 800
RAW_DESCENT 200
NORM_SPACE 3
RELATIVE_WEIGHT 40
RELATIVE_SETWIDTH 50
SUPERSCRIPT_X 0
SUPERSCRIPT_Y 3
SUPERSCRIPT_SIZE 5
SUBSCRIPT_X 0
SUBSCRIPT_Y 1
SUBSCRIPT_SIZE 5
FIGURE_WIDTH 6
AVG_LOWERCASE_WIDTH 25
AVG_UPPERCASE_WIDTH 28
ENDPROPERTIES
CHARS 145
STARTCHAR nonmarkingreturn
ENCODING 13
SWIDTH 328 0
DWIDTH 3 0
BBX 1 1 0 0
BITMAP
00
ENDCHAR
STARTCHAR space
ENCODING 32
SWIDTH 328 0
DWIDTH 3 0
BBX 1 1 0 0
BITMAP
00
ENDCHAR
STARTCHAR exclam
ENCODING 33
SWIDTH 223 0
DWIDTH 2 0
BBX 1 7 0 0
BITMAP
80
80
80
80
80
00
80
ENDCHAR
STARTCHAR quotedbl
ENCODING 34
SWIDTH 472 0
DWIDTH 4 0
BBX 3 2 0 5
BITMAP
A0
A0
ENDCHAR
STARTCHAR numbersign
ENCODING 35
SWIDTH 722 0
DWIDTH 6 0
BBX 5 5 0 1
BITMAP
50
F8
50
F8
50
ENDCHAR
STARTCHAR dollar
ENCODING 36
SWIDTH 723 0
DWIDTH 6 0
BBX 5 7 0 0
BITMAP
70
A8
A0
70
28
A8
70
ENDCHAR
STARTCHAR percent
ENCODING 37
SWIDTH 973 0
DWIDTH 8 0
BBX 7 7 0 0
BITMAP
44
A4
48
10
24
4A
44
ENDCHAR
STARTCHAR ampersand
ENCODING 38
SWIDTH 723 0
DWIDTH 6 0
BBX 5 7 0 0
BITMAP
60
90
A0
40
A8
90
68
ENDCHAR
STARTCHAR quotesingle
ENCODING 39
SWIDTH 223 0
DWIDTH 2 0
BBX 1 2 0 5
BITMAP
80
80
ENDCHAR
STARTCHAR parenleft
ENCODING 40
SWIDTH 349 0
DWIDTH 3 0
BBX 2 7 0 0
BITMAP
40
80
80
80
80
80
40
ENDCHAR
STARTCHAR parenright
ENCODING 41
SWIDTH 348 0
DWIDTH 3 0
BBX 2 7 0 0
BITMAP
80
40
40
40
40
40
80
ENDCHAR
STARTCHAR asterisk
ENCODING 42
SWIDTH 723 0
DWIDTH 6 0
BBX 5 7 0 0
BITMAP
20
A8
70
20
70
A8
20
ENDCHAR
STARTCHAR plus
ENCODING 43
SWIDTH 722 0
DWIDTH 6 0
BBX 5 5 0 1
BITMAP
20
20
F8
20
20
ENDCHAR
STARTCHAR comma
ENCODING 44
SWIDTH 348 0
DWIDTH 3 0
BBX 2 2 0 0
BITMAP
40
C0
ENDCHAR
STARTCHAR hyphen
ENCODING 45
SWIDTH 473 0
DWIDTH 4 0
BBX 3 1 0 3
BITMAP
E0
ENDCHAR
STARTCHAR period
ENCODING 46
SWIDTH 222 0
DWIDTH 2 0
BBX 1 1 0 0
BITMAP
80
ENDCHAR
STARTCHAR slash
ENCODING 47
SWIDTH 724 0
DWIDTH 6 0
BBX 5 7 0 0
BITMAP
08
08
10
20
40
80
80
ENDCHAR
STARTCHAR zero
ENCODING 48
SWIDTH 722 0
DWIDTH 6 0
BBX 5 7 0 0
BITMAP
70
88
88
88
88
88
70
ENDCHAR
STARTCHAR one
ENCODING 49
SWIDTH 722 0
DWIDTH 6 0
BBX 5 7 0 0
BITMAP
20
E0
20
20
20
20
F8
ENDCHAR
STARTCHAR two
ENCODING 50
SWIDTH 722 0
DWIDTH 6 0
BBX 5 7 0 0
BITMAP
70
88
08
10
20
40
F8
ENDCHAR
STARTCHAR three
ENCODING 51
SWIDTH 723 0
DWIDTH 6 0
BBX 5 7 0 0
BITMAP
70
88
08
30
08
88
70
ENDCHAR
STARTCHAR four
ENCODING 52
SWIDTH 722 0
DWIDTH 6 0
BBX 5 7 0 0
BITMAP
08
18
28
48
F8
08
08
ENDCHAR
STARTCHAR five
ENCODING 53
SWIDTH 723 0
DWIDTH 6 0
BBX 5 7 0 0
BITMAP
F8
80
80
F0
08
88
70
ENDCHAR
STARTCHAR six
ENCODING 54
SWIDTH 723 0
DWIDTH 6 0
BBX 5 7 0 0
BITMAP
70
88
80
F0
88
88
70
ENDCHAR
STARTCHAR seven
ENCODING 55
SWIDTH 724 0
DWIDTH 6 0
BBX 5 7 0 0
BITMAP
F8
08
10
20
40
40
40
ENDCHAR
STARTCHAR eight
ENCODING 56
SWIDTH 724 0
DWIDTH 6 0
BBX 5 7 0 0
BITMAP
70
88
88
70
88
88
70
ENDCHAR
STARTCHAR nine
ENCODING 57
SWIDTH 722 0
DWIDTH 6 0
BBX 5 7 0 0
BITMAP
70
88
88
78
08
88
70
ENDCHAR
STARTCHAR colon
ENCODING 58
SWIDTH 222 0
DWIDTH 2 0
BBX 1 4 0 0
BITMAP
80
00
00
80
ENDCHAR
STARTCHAR semicolon
ENCODING 59
SWIDTH 348 0
DWIDTH 3 0
BBX 2 4 0 0
BITMAP
40
00
40
C0
ENDCHAR
STARTCHAR less
ENCODING 60
SWIDTH 598 0
DWIDTH 5 0
BBX 4 7 0 0
BITMAP
10
20
40
80
40
20
10
ENDCHAR
STARTCHAR equal
ENCODING 61
SWIDTH 722 0
DWIDTH 6 0
BBX 5 3 0 2
BITMAP
F8
00
F8
ENDCHAR
STARTCHAR greater
ENCODING 62
SWIDTH 598 0
DWIDTH 5 0
BBX 4 7 0 0
BITMAP
80
40
20
10
20
40
80
ENDCHAR
STARTCHAR question
ENCODING 63
SWIDTH 723 0
DWIDTH 6 0
BBX 5 7 0 0
BITMAP
70
88
08
30
40
00
40
ENDCHAR
STARTCHAR at
ENCODING 64
SWIDTH 724 0
DWIDTH 6 0
BBX 5 7 0 0
BITMAP
70
88
98
A8
A8
90
40
ENDCHAR
STARTCHAR A
ENCODING 65
SWIDTH 723 0
DWIDTH 6 0
BBX 5 7 0 0
BITMAP
70
88
88
F8
88
88
88
ENDCHAR
STARTCHAR B
ENCODING 66
SWIDTH 723 0
DWIDTH 6 0
BBX 5 7 0 0
BITMAP
F0
88
88
F0
88
88
F0
ENDCHAR
STARTCHAR C
ENCODING 67
SWIDTH 722 0
DWIDTH 6 0
BBX 5 7 0 0
BITMAP
70
88
80
80
80
88
70
ENDCHAR
STARTCHAR D
ENCODING 68
SWIDTH 723 0
DWIDTH 6 0
BBX 5 7 0 0
BITMAP
F0
88
88
88
88
88
F0
ENDCHAR
STARTCHAR E
ENCODING 69
SWIDTH 723 0
DWIDTH 6 0
BBX 5 7 0 0
BITMAP
F8
80
80
F0
80
80
F8
ENDCHAR
STARTCHAR F
ENCODING 70
SWIDTH 723 0
DWIDTH 6 0
BBX 5 7 0 0
BITMAP
F8
80
80
F0
80
80
80
ENDCHAR
STARTCHAR G
ENCODING 71
SWIDTH 723 0
DWIDTH 6 0
BBX 5 7 0 0
BITMAP
70
88
80
B8
88
88
78
ENDCHAR
STARTCHAR H
ENCODING 72
SWIDTH 722 0
DWIDTH 6 0
BBX 5 7 0 0
BITMAP
88
88
88
F8
88
88
88
ENDCHAR
STARTCHAR I
ENCODING 73
SWIDTH 723 0
DWIDTH 6 0
BBX 5 7 0 0
BITMAP
70
20
20
20
20
20
F8
ENDCHAR
STARTCHAR J
ENCODING 74
SWIDTH 722 0
DWIDTH 6 0
BBX 5 7 0 0
BITMAP
78
08
08
08
08
88
70
ENDCHAR
STARTCHAR K
ENCODING 75
SWIDTH 723 0
DWIDTH 6 0
BBX 5 7 0 0
BITMAP
88
90
A0
C0
A0
90
88
ENDCHAR
STARTCHAR L
ENCODING 76
SWIDTH 722 0
DWIDTH 6 0
BBX 5 7 0 0
BITMAP
80
80
80
80
80
80
F8
ENDCHAR
STARTCHAR M
ENCODING 77
SWIDTH 723 0
DWIDTH 6 0
BBX 5 7 0 0
BITMAP
D8
A8
A8
A8
88
88
88
ENDCHAR
STARTCHAR N
ENCODING 78
SWIDTH 723 0
DWIDTH 6 0
BBX 5 7 0 0
BITMAP
88
88
C8
A8
98
88
88
ENDCHAR
STARTCHAR O
ENCODING 79
SWIDTH 723 0
DWIDTH 6 0
BBX 5 7 0 0
BITMAP
70
88
88
88
88
88
70
ENDCHAR
STARTCHAR P
ENCODING 80
SWIDTH 723 0
DWIDTH 6 0
BBX 5 7 0 0
BITMAP
F0
88
88
F0
80
80
80
ENDCHAR
STARTCHAR Q
ENCODING 81
SWIDTH 723 0
DWIDTH 6 0
BBX 5 7 0 0
BITMAP
70
88
88
88
A8
90
68
ENDCHAR
STARTCHAR R
ENCODING 82
SWIDTH 722 0
DWIDTH 6 0
BBX 5 7 0 0
BITMAP
F0
88
88
F0
A0
90
88
ENDCHAR
STARTCHAR S
ENCODING 83
SWIDTH 722 0
DWIDTH 6 0
BBX 5 7 0 0
BITMAP
70
88
80
70
08
88
70
ENDCHAR
STARTCHAR T
ENCODING 84
SWIDTH 723 0
DWIDTH 6 0
BBX 5 7 0 0
BITMAP
F8
20
20
20
20
20
20
ENDCHAR
STARTCHAR U
ENCODING 85
SWIDTH 724 0
DWIDTH 6 0
BBX 5 7 0 0
BITMAP
88
88
88
88
88
88
70
ENDCHAR
STARTCHAR V
ENCODING 86
SWIDTH 723 0
DWIDTH 6 0
BBX 5 7 0 0
BITMAP
88
88
88
88
88
50
20
ENDCHAR
STARTCHAR W
ENCODING 87
SWIDTH 723 0
DWIDTH 6 0
BBX 5 7 0 0
BITMAP
88
88
A8
A8
A8
A8
50
ENDCHAR
STARTCHAR X
ENCODING 88
SWIDTH 723 0
DWIDTH 6 0
BBX 5 7 0 0
BITMAP
88
50
20
20
20
50
88
ENDCHAR
STARTCHAR Y
ENCODING 89
SWIDTH 724 0
DWIDTH 6 0
BBX 5 7 0 0
BITMAP
88
88
88
50
20
20
20
ENDCHAR
STARTCHAR Z
ENCODING 90
SWIDTH 723 0
DWIDTH 6 0
BBX 5 7 0 0
BITMAP
F8
08
10
20
40
80
F8
ENDCHAR
STARTCHAR bracketleft
ENCODING 91
SWIDTH 348 0
DWIDTH 3 0
BBX 2 7 0 0
BITMAP
40
80
80
80
80
80
40
ENDCHAR
STARTCHAR backslash
ENCODING 92
SWIDTH 723 0
DWIDTH 6 0
BBX 5 7 0 0
BITMAP
80
80
40
20
10
08
08
ENDCHAR
STARTCHAR bracketright
ENCODING 93
SWIDTH 347 0
DWIDTH 3 0
BBX 2 7 0 0
BITMAP
80
40
40
40
40
40
80
ENDCHAR
STARTCHAR a
ENCODING 97
SWIDTH 598 0
DWIDTH 5 0
BBX 4 6 0 0
BITMAP
60
10
70
90
90
60
ENDCHAR
STARTCHAR b
ENCODING 98
SWIDTH 598 0
DWIDTH 5 0
BBX 4 7 0 0
BITMAP
80
80
E0
90
90
90
60
ENDCHAR
STARTCHAR c
ENCODING 99
SWIDTH 598 0
DWIDTH 5 0
BBX 4 6 0 0
BITMAP
60
90
80
80
90
60
ENDCHAR
STARTCHAR d
ENCODING 100
SWIDTH 598 0
DWIDTH 5 0
BBX 4 7 0 0
BITMAP
10
10
70
90
90
90
60
ENDCHAR
STARTCHAR e
ENCODING 101
SWIDTH 598 0
DWIDTH 5 0
BBX 4 6 0 0
BITMAP
60
90
90
F0
80
60
ENDCHAR
STARTCHAR f
ENCODING 102
SWIDTH 473 0
DWIDTH 4 0
BBX 3 7 0 0
BITMAP
60
80
80
C0
80
80
80
ENDCHAR
STARTCHAR g
ENCODING 103
SWIDTH 599 0
DWIDTH 5 0
BBX 4 6 0 0
BITMAP
60
90
90
70
10
60
ENDCHAR
STARTCHAR h
ENCODING 104
SWIDTH 598 0
DWIDTH 5 0
BBX 4 7 0 0
BITMAP
80
80
E0
90
90
90
90
ENDCHAR
STARTCHAR i
ENCODING 105
SWIDTH 473 0
DWIDTH 4 0
BBX 3 7 0 0
BITMAP
40
00
C0
40
40
40
20
ENDCHAR
STARTCHAR j
ENCODING 106
SWIDTH 599 0
DWIDTH 5 0
BBX 4 7 0 0
BITMAP
10
00
30
10
10
90
60
ENDCHAR
STARTCHAR k
ENCODING 107
SWIDTH 598 0
DWIDTH 5 0
BBX 4 7 0 0
BITMAP
80
80
90
A0
C0
A0
90
ENDCHAR
STARTCHAR l
ENCODING 108
SWIDTH 473 0
DWIDTH 4 0
BBX 3 7 0 0
BITMAP
C0
40
40
40
40
40
20
ENDCHAR
STARTCHAR m
ENCODING 109
SWIDTH 723 0
DWIDTH 6 0
BBX 5 6 0 0
BITMAP
50
A8
A8
A8
A8
A8
ENDCHAR
STARTCHAR n
ENCODING 110
SWIDTH 597 0
DWIDTH 5 0
BBX 4 6 0 0
BITMAP
60
90
90
90
90
90
ENDCHAR
STARTCHAR o
ENCODING 111
SWIDTH 598 0
DWIDTH 5 0
BBX 4 6 0 0
BITMAP
60
90
90
90
90
60
ENDCHAR
STARTCHAR p
ENCODING 112
SWIDTH 598 0
DWIDTH 5 0
BBX 4 6 0 0
BITMAP
60
90
90
E0
80
80
ENDCHAR
STARTCHAR q
ENCODING 113
SWIDTH 598 0
DWIDTH 5 0
BBX 4 6 0 0
BITMAP
60
90
90
70
10
10
ENDCHAR
STARTCHAR r
ENCODING 114
SWIDTH 473 0
DWIDTH 4 0
BBX 3 6 0 0
BITMAP
60
80
80
80
80
80
ENDCHAR
STARTCHAR s
ENCODING 115
SWIDTH 598 0
DWIDTH 5 0
BBX 4 6 0 0
BITMAP
60
90
40
20
90
60
ENDCHAR
STARTCHAR t
ENCODING 116
SWIDTH 472 0
DWIDTH 4 0
BBX 3 6 0 0
BITMAP
80
E0
80
80
80
60
ENDCHAR
STARTCHAR u
ENCODING 117
SWIDTH 597 0
DWIDTH 5 0
BBX 4 6 0 0
BITMAP
90
90
90
90
90
60
ENDCHAR
STARTCHAR v
ENCODING 118
SWIDTH 597 0
DWIDTH 5 0
BBX 4 6 0 0
BITMAP
90
90
90
90
50
20
ENDCHAR
STARTCHAR w
ENCODING 119
SWIDTH 723 0
DWIDTH 6 0
BBX 5 6 0 0
BITMAP
88
A8
A8
A8
A8
50
ENDCHAR
STARTCHAR x
ENCODING 120
SWIDTH 723 0
DWIDTH 6 0
BBX 5 6 0 0
BITMAP
88
50
20
20
50
88
ENDCHAR
STARTCHAR y
ENCODING 121
SWIDTH 599 0
DWIDTH 5 0
BBX 4 6 0 0
BITMAP
90
90
90
70
10
60
ENDCHAR
STARTCHAR z
ENCODING 122
SWIDTH 597 0
DWIDTH 5 0
BBX 4 6 0 0
BITMAP
F0
10
20
40
80
F0
ENDCHAR
STARTCHAR braceleft
ENCODING 123
SWIDTH 348 0
DWIDTH 3 0
BBX 2 7 0 0
BITMAP
40
80
80
80
80
80
40
ENDCHAR
STARTCHAR bar
ENCODING 124
SWIDTH 723 0
DWIDTH 6 0
BBX 1 7 2 0
BITMAP
80
80
80
80
80
80
80
ENDCHAR
STARTCHAR braceright
ENCODING 125
SWIDTH 348 0
DWIDTH 3 0
BBX 2 7 0 0
BITMAP
80
40
40
40
40
40
80
ENDCHAR
STARTCHAR exclamdown
ENCODING 161
SWIDTH 223 0
DWIDTH 2 0
BBX 1 7 0 0
BITMAP
80
00
80
80
80
80
80
ENDCHAR
STARTCHAR cent
ENCODING 162
SWIDTH 598 0
DWIDTH 5 0
BBX 4 5 0 2
BITMAP
60
90
80
90
60
ENDCHAR
STARTCHAR sterling
ENCODING 163
SWIDTH 722 0
DWIDTH 6 0
BBX 5 7 0 0
BITMAP
30
48
40
F0
40
40
F8
ENDCHAR
STARTCHAR currency
ENCODING 164
SWIDTH 724 0
DWIDTH 6 0
BBX 5 7 0 0
BITMAP
30
48
40
F0
40
48
30
ENDCHAR
STARTCHAR yen
ENCODING 165
SWIDTH 724 0
DWIDTH 6 0
BBX 5 7 0 0
BITMAP
88
88
50
20
70
20
20
ENDCHAR
STARTCHAR brokenbar
ENCODING 166
SWIDTH 723 0
DWIDTH 6 0
BBX 1 7 2 0
BITMAP
80
80
80
00
80
80
80
ENDCHAR
STARTCHAR copyright
ENCODING 169
SWIDTH 625 0
DWIDTH 5 0
BBX 6 7 0 0
BITMAP
78
84
B4
A4
B4
84
78
ENDCHAR
STARTCHAR ordfeminine
ENCODING 170
SWIDTH 598 0
DWIDTH 5 0
BBX 4 6 0 1
BITMAP
60
10
70
90
90
60
ENDCHAR
STARTCHAR minus
ENCODING 173
SWIDTH 722 0
DWIDTH 6 0
BBX 5 1 0 3
BITMAP
F8
ENDCHAR
STARTCHAR degree
ENCODING 176
SWIDTH 474 0
DWIDTH 4 0
BBX 3 4 0 3
BITMAP
40
A0
A0
40
ENDCHAR
STARTCHAR twosuperior
ENCODING 178
SWIDTH 0 0
DWIDTH 0 0
BBX 1 1 0 0
BITMAP
00
ENDCHAR
STARTCHAR periodcentered
ENCODING 183
SWIDTH 222 0
DWIDTH 2 0
BBX 1 1 0 3
BITMAP
80
ENDCHAR
STARTCHAR ordmasculine
ENCODING 186
SWIDTH 598 0
DWIDTH 5 0
BBX 4 6 0 1
BITMAP
60
90
90
90
90
60
ENDCHAR
STARTCHAR questiondown
ENCODING 191
SWIDTH 723 0
DWIDTH 6 0
BBX 5 7 0 0
BITMAP
10
00
10
60
80
88
70
ENDCHAR
STARTCHAR Eth
ENCODING 208
SWIDTH 723 0
DWIDTH 6 0
BBX 5 7 0 0
BITMAP
F0
88
88
C8
88
88
F0
ENDCHAR
STARTCHAR Thorn
ENCODING 222
SWIDTH 723 0
DWIDTH 6 0
BBX 5 7 0 0
BITMAP
80
F0
88
88
F0
80
80
ENDCHAR
STARTCHAR germandbls
ENCODING 223
SWIDTH 598 0
DWIDTH 5 0
BBX 4 7 0 0
BITMAP
60
90
90
E0
90
90
A0
ENDCHAR
STARTCHAR eth
ENCODING 240
SWIDTH 598 0
DWIDTH 5 0
BBX 4 7 0 0
BITMAP
20
10
70
90
90
90
60
ENDCHAR
STARTCHAR divide
ENCODING 247
SWIDTH 722 0
DWIDTH 6 0
BBX 5 5 0 1
BITMAP
20
00
F8
00
20
ENDCHAR
STARTCHAR thorn
ENCODING 254
SWIDTH 598 0
DWIDTH 5 0
BBX 4 7 0 0
BITMAP
80
80
E0
90
90
E0
80
ENDCHAR
STARTCHAR ydieresis
ENCODING 255
SWIDTH 19 0
DWIDTH 0 0
BBX 1 1 0 0
BITMAP
00
ENDCHAR
STARTCHAR Lslash
ENCODING 321
SWIDTH 722 0
DWIDTH 6 0
BBX 5 7 0 0
BITMAP
80
80
80
C0
80
80
F8
ENDCHAR
STARTCHAR lslash
ENCODING 322
SWIDTH 473 0
DWIDTH 4 0
BBX 3 7 0 0
BITMAP
C0
40
40
E0
40
40
E0
ENDCHAR
STARTCHAR Scaron
ENCODING 352
SWIDTH 0 0
DWIDTH 0 0
BBX 1 1 0 0
BITMAP
00
ENDCHAR
STARTCHAR scaron
ENCODING 353
SWIDTH 0 0
DWIDTH 0 0
BBX 1 1 0 0
BITMAP
00
ENDCHAR
STARTCHAR pi
ENCODING 960
SWIDTH 597 0
DWIDTH 5 0
BBX 4 5 0 0
BITMAP
F0
90
90
90
90
ENDCHAR
STARTCHAR hyphen.dup2
ENCODING 8208
SWIDTH 473 0
DWIDTH 4 0
BBX 3 1 0 3
BITMAP
E0
ENDCHAR
STARTCHAR endash
ENCODING 8211
SWIDTH 0 0
DWIDTH 0 0
BBX 1 1 0 0
BITMAP
00
ENDCHAR
STARTCHAR emdash
ENCODING 8212
SWIDTH 0 0
DWIDTH 0 0
BBX 1 1 0 0
BITMAP
00
ENDCHAR
STARTCHAR quoteleft
ENCODING 8216
SWIDTH 223 0
DWIDTH 2 0
BBX 1 2 0 5
BITMAP
80
80
ENDCHAR
STARTCHAR quoteright
ENCODING 8217
SWIDTH 223 0
DWIDTH 2 0
BBX 1 2 0 5
BITMAP
80
80
ENDCHAR
STARTCHAR quotesinglbase
ENCODING 8218
SWIDTH 0 0
DWIDTH 0 0
BBX 1 1 0 0
BITMAP
00
ENDCHAR
STARTCHAR quotedblleft
ENCODING 8220
SWIDTH 472 0
DWIDTH 4 0
BBX 3 2 0 5
BITMAP
A0
A0
ENDCHAR
STARTCHAR quotedblright
ENCODING 8221
SWIDTH 472 0
DWIDTH 4 0
BBX 3 2 0 5
BITMAP
A0
A0
ENDCHAR
STARTCHAR quotedblbase
ENCODING 8222
SWIDTH 0 0
DWIDTH 0 0
BBX 1 1 0 0
BITMAP
00
ENDCHAR
STARTCHAR dagger
ENCODING 8224
SWIDTH 0 0
DWIDTH 0 0
BBX 1 1 0 0
BITMAP
00
ENDCHAR
STARTCHAR daggerdbl
ENCODING 8225
SWIDTH 0 0
DWIDTH 0 0
BBX 1 1 0 0
BITMAP
00
ENDCHAR
STARTCHAR bullet
ENCODING 8226
SWIDTH 348 0
DWIDTH 3 0
BBX 2 2 0 3
BITMAP
C0
C0
ENDCHAR
STARTCHAR ellipsis
ENCODING 8230
SWIDTH 0 0
DWIDTH 0 0
BBX 1 1 0 0
BITMAP
00
ENDCHAR
STARTCHAR perthousand
ENCODING 8240
SWIDTH 0 0
DWIDTH 0 0
BBX 1 1 0 0
BITMAP
00
ENDCHAR
STARTCHAR guilsinglleft
ENCODING 8249
SWIDTH 598 0
DWIDTH 5 0
BBX 4 7 0 0
BITMAP
10
20
40
80
40
20
10
ENDCHAR
STARTCHAR guilsinglright
ENCODING 8250
SWIDTH 598 0
DWIDTH 5 0
BBX 4 7 0 0
BITMAP
80
40
20
10
20
40
80
ENDCHAR
STARTCHAR fraction
ENCODING 8260
SWIDTH 19 0
DWIDTH 0 0
BBX 1 1 0 0
BITMAP
00
ENDCHAR
STARTCHAR euro
ENCODING 8364
SWIDTH 724 0
DWIDTH 6 0
BBX 5 7 0 0
BITMAP
30
48
40
F0
40
48
30
ENDCHAR
STARTCHAR trademark
ENCODING 8482
SWIDTH 0 0
DWIDTH 0 0
BBX 1 1 0 0
BITMAP
00
ENDCHAR
STARTCHAR partialdiff
ENCODING 8706
SWIDTH 598 0
DWIDTH 5 0
BBX 4 7 0 0
BITMAP
20
10
70
90
90
90
60
ENDCHAR
STARTCHAR minus.dup3
ENCODING 8722
SWIDTH 722 0
DWIDTH 6 0
BBX 5 1 0 3
BITMAP
F8
ENDCHAR
STARTCHAR periodcentered.dup4
ENCODING 8729
SWIDTH 222 0
DWIDTH 2 0
BBX 1 1 0 3
BITMAP
80
ENDCHAR
STARTCHAR apple
ENCODING 61440
SWIDTH 840 0
DWIDTH 7 0
BBX 5 6 1 0
BITMAP
C8
98
98
B8
98
C8
ENDCHAR
STARTCHAR fi
ENCODING 61441
SWIDTH 0 0
DWIDTH 0 0
BBX 1 1 0 0
BITMAP
00
ENDCHAR
STARTCHAR fl
ENCODING 61442
SWIDTH 59 0
DWIDTH 0 0
BBX 1 1 0 0
BITMAP
00
ENDCHAR
STARTCHAR .notdef
ENCODING 61444
SWIDTH 500 0
DWIDTH 4 0
BBX 4 7 0 0
BITMAP
F0
90
90
90
90
90
F0
ENDCHAR
STARTCHAR NULL
ENCODING 61445
SWIDTH 0 0
DWIDTH 0 0
BBX 1 1 0 0
BITMAP
00
ENDCHAR
ENDFONT
